<mxfile host="app.diagrams.net" agent="Mozilla/5.0 (Macintosh; Intel Mac OS X 10_15_7) AppleWebKit/537.36 (KHTML, like Gecko) Chrome/131.0.0.0 Safari/537.36" version="25.0.3">
  <diagram name="第 1 页" id="mAvE1NZQwtH42R5UcDGE">
    <mxGraphModel dx="908" dy="581" grid="1" gridSize="10" guides="1" tooltips="1" connect="1" arrows="1" fold="1" page="1" pageScale="1" pageWidth="827" pageHeight="1169" math="0" shadow="0">
      <root>
        <mxCell id="0" />
        <mxCell id="1" parent="0" />
        <mxCell id="xt7PEyAex0gFcUq6fjPx-1" style="edgeStyle=orthogonalEdgeStyle;curved=1;rounded=0;orthogonalLoop=1;jettySize=auto;html=1;entryX=0;entryY=0.5;entryDx=0;entryDy=0;entryPerimeter=0;startArrow=none;startFill=0;endArrow=classicThin;endFill=1;" edge="1" parent="1" source="xt7PEyAex0gFcUq6fjPx-6" target="xt7PEyAex0gFcUq6fjPx-16">
          <mxGeometry relative="1" as="geometry" />
        </mxCell>
        <mxCell id="xt7PEyAex0gFcUq6fjPx-2" value="&lt;div style=&quot;&quot;&gt;&lt;pre style=&quot;font-family: &amp;quot;jetbrains mono&amp;quot; , monospace ; font-size: 11.3pt&quot;&gt;&lt;span style=&quot;&quot;&gt;getLinkAddress&lt;/span&gt;&lt;/pre&gt;&lt;/div&gt;" style="edgeLabel;html=1;align=center;verticalAlign=middle;resizable=0;points=[];labelBackgroundColor=none;fontColor=none;noLabel=1;" vertex="1" connectable="0" parent="xt7PEyAex0gFcUq6fjPx-1">
          <mxGeometry x="-0.2" relative="1" as="geometry">
            <mxPoint as="offset" />
          </mxGeometry>
        </mxCell>
        <mxCell id="xt7PEyAex0gFcUq6fjPx-3" value="getLinkAddress" style="edgeLabel;html=1;align=center;verticalAlign=middle;resizable=0;points=[];fontColor=#000000;" vertex="1" connectable="0" parent="xt7PEyAex0gFcUq6fjPx-1">
          <mxGeometry x="-0.17" y="2" relative="1" as="geometry">
            <mxPoint as="offset" />
          </mxGeometry>
        </mxCell>
        <mxCell id="xt7PEyAex0gFcUq6fjPx-4" style="edgeStyle=orthogonalEdgeStyle;curved=1;rounded=0;orthogonalLoop=1;jettySize=auto;html=1;fontColor=#000000;startArrow=classicThin;startFill=1;endArrow=none;endFill=0;" edge="1" parent="1" source="xt7PEyAex0gFcUq6fjPx-6">
          <mxGeometry relative="1" as="geometry">
            <mxPoint x="30" y="160" as="targetPoint" />
          </mxGeometry>
        </mxCell>
        <mxCell id="xt7PEyAex0gFcUq6fjPx-5" value="/send" style="edgeLabel;html=1;align=center;verticalAlign=middle;resizable=0;points=[];fontColor=#000000;" vertex="1" connectable="0" parent="xt7PEyAex0gFcUq6fjPx-4">
          <mxGeometry x="0.6" y="-1" relative="1" as="geometry">
            <mxPoint x="22" y="-9" as="offset" />
          </mxGeometry>
        </mxCell>
        <mxCell id="xt7PEyAex0gFcUq6fjPx-6" value="" style="html=1;rounded=0;shadow=0;comic=0;labelBackgroundColor=none;strokeColor=#000000;strokeWidth=1;fillColor=none;fontFamily=Verdana;fontSize=12;fontColor=#000000;align=center;dashed=1;labelPosition=center;verticalLabelPosition=bottom;verticalAlign=top;" vertex="1" parent="1">
          <mxGeometry x="120" y="40" width="400" height="240" as="geometry" />
        </mxCell>
        <mxCell id="xt7PEyAex0gFcUq6fjPx-7" value="iothub-access-ext0" style="shape=component;align=left;spacingLeft=36;rounded=0;shadow=0;comic=0;labelBackgroundColor=none;strokeColor=#000000;strokeWidth=1;fillColor=#ffffff;fontFamily=Verdana;fontSize=12;fontColor=#000000;html=1;" vertex="1" parent="1">
          <mxGeometry x="140" y="60" width="160" height="40" as="geometry" />
        </mxCell>
        <mxCell id="xt7PEyAex0gFcUq6fjPx-8" style="edgeStyle=orthogonalEdgeStyle;rounded=0;orthogonalLoop=1;jettySize=auto;html=1;startArrow=classicThin;startFill=1;endArrow=classicThin;endFill=1;entryX=0.5;entryY=1;entryDx=0;entryDy=0;" edge="1" parent="1" source="xt7PEyAex0gFcUq6fjPx-12" target="xt7PEyAex0gFcUq6fjPx-7">
          <mxGeometry relative="1" as="geometry" />
        </mxCell>
        <mxCell id="xt7PEyAex0gFcUq6fjPx-9" value="RPC" style="edgeLabel;html=1;align=center;verticalAlign=middle;resizable=0;points=[];" vertex="1" connectable="0" parent="xt7PEyAex0gFcUq6fjPx-8">
          <mxGeometry x="0.1167" y="-1" relative="1" as="geometry">
            <mxPoint as="offset" />
          </mxGeometry>
        </mxCell>
        <mxCell id="xt7PEyAex0gFcUq6fjPx-10" style="edgeStyle=orthogonalEdgeStyle;rounded=0;orthogonalLoop=1;jettySize=auto;html=1;entryX=0.5;entryY=1;entryDx=0;entryDy=0;startArrow=classicThin;startFill=1;endArrow=classicThin;endFill=1;curved=1;" edge="1" parent="1" source="xt7PEyAex0gFcUq6fjPx-12" target="xt7PEyAex0gFcUq6fjPx-15">
          <mxGeometry relative="1" as="geometry" />
        </mxCell>
        <mxCell id="xt7PEyAex0gFcUq6fjPx-11" value="RPC" style="edgeLabel;html=1;align=center;verticalAlign=middle;resizable=0;points=[];" vertex="1" connectable="0" parent="xt7PEyAex0gFcUq6fjPx-10">
          <mxGeometry x="-0.0971" y="7" relative="1" as="geometry">
            <mxPoint as="offset" />
          </mxGeometry>
        </mxCell>
        <mxCell id="xt7PEyAex0gFcUq6fjPx-12" value="iothub-access-ext1" style="shape=component;align=left;spacingLeft=36;rounded=0;shadow=0;comic=0;labelBackgroundColor=none;strokeColor=#000000;strokeWidth=1;fillColor=#ffffff;fontFamily=Verdana;fontSize=12;fontColor=#000000;html=1;" vertex="1" parent="1">
          <mxGeometry x="140" y="220" width="160" height="40" as="geometry" />
        </mxCell>
        <mxCell id="xt7PEyAex0gFcUq6fjPx-13" style="edgeStyle=orthogonalEdgeStyle;rounded=0;orthogonalLoop=1;jettySize=auto;html=1;entryX=0.75;entryY=0;entryDx=0;entryDy=0;startArrow=classicThin;startFill=1;endArrow=classicThin;endFill=1;exitX=0.5;exitY=0;exitDx=0;exitDy=0;curved=1;" edge="1" parent="1" source="xt7PEyAex0gFcUq6fjPx-15" target="xt7PEyAex0gFcUq6fjPx-12">
          <mxGeometry relative="1" as="geometry">
            <Array as="points">
              <mxPoint x="425" y="120" />
              <mxPoint x="260" y="120" />
            </Array>
          </mxGeometry>
        </mxCell>
        <mxCell id="xt7PEyAex0gFcUq6fjPx-14" value="RPC" style="edgeLabel;html=1;align=center;verticalAlign=middle;resizable=0;points=[];" vertex="1" connectable="0" parent="xt7PEyAex0gFcUq6fjPx-13">
          <mxGeometry x="0.0237" y="8" relative="1" as="geometry">
            <mxPoint as="offset" />
          </mxGeometry>
        </mxCell>
        <mxCell id="xt7PEyAex0gFcUq6fjPx-15" value="iothub-access-ext2" style="shape=component;align=left;spacingLeft=36;rounded=0;shadow=0;comic=0;labelBackgroundColor=none;strokeColor=#000000;strokeWidth=1;fillColor=#ffffff;fontFamily=Verdana;fontSize=12;fontColor=#000000;html=1;" vertex="1" parent="1">
          <mxGeometry x="340" y="150" width="170" height="40" as="geometry" />
        </mxCell>
        <mxCell id="xt7PEyAex0gFcUq6fjPx-16" value="redis" style="shape=cylinder3;whiteSpace=wrap;html=1;boundedLbl=1;backgroundOutline=1;size=15;" vertex="1" parent="1">
          <mxGeometry x="660" y="120" width="60" height="80" as="geometry" />
        </mxCell>
      </root>
    </mxGraphModel>
  </diagram>
</mxfile>
